<svg width="104" height="104" viewBox="0 0 104 104" fill="none" xmlns="http://www.w3.org/2000/svg">
<path fill-rule="evenodd" clip-rule="evenodd" d="M47.4964 25.0092C43.2783 25.0092 39.8589 28.4286 39.8589 32.6467V58.1769L37.7744 56.5413C34.2924 53.8093 29.2864 54.2548 26.3416 57.5588C23.7525 60.4636 23.5027 64.7683 25.7384 67.9531L37.0057 84.0037C39.0081 86.8562 40.4373 90.0704 41.2138 93.4679C42.2508 98.0045 46.2863 101.222 50.9399 101.222H65.8553C71.919 101.222 77.1773 97.0296 78.5285 91.1184L79.1584 88.3624C83.184 82.9609 85.3589 76.4038 85.3589 69.6664V59.2967H85.3584V58.9717C85.3584 54.7536 81.939 51.3342 77.7209 51.3342C76.7671 51.3342 75.8541 51.509 75.0122 51.8284C74.125 48.5929 71.1631 46.2154 67.6459 46.2154C66.6414 46.2154 65.6822 46.4093 64.8037 46.7618C63.7799 43.7506 60.9284 41.5842 57.5709 41.5842C56.7188 41.5842 55.8992 41.7237 55.1339 41.9812V32.6467C55.1339 28.4286 51.7145 25.0092 47.4964 25.0092ZM75.2834 58.9717V59.7029V63.8467C75.2834 65.2826 74.1194 66.4467 72.6834 66.4467C71.2475 66.4467 70.0834 65.2826 70.0834 63.8467V59.7029V58.9717V53.8529C70.0834 52.5067 68.9921 51.4154 67.6459 51.4154C66.2998 51.4154 65.2084 52.5067 65.2084 53.8529V57.1029V59.7029C65.2084 61.1388 64.0444 62.3029 62.6084 62.3029C61.1725 62.3029 60.0084 61.1388 60.0084 59.7029V57.1029V53.8529V49.2217C60.0084 47.8755 58.9171 46.7842 57.5709 46.7842C56.2403 46.7842 55.1587 47.8504 55.1339 49.1751V50.3592H55.1334V57.1029C55.1334 58.5388 53.9694 59.7029 52.5334 59.7029C51.0975 59.7029 49.9334 58.5388 49.9334 57.1029V49.2217L49.9339 49.1392V32.6467C49.9339 31.3005 48.8426 30.2092 47.4964 30.2092C46.1502 30.2092 45.0589 31.3005 45.0589 32.6467V63.5217C45.0589 64.5167 44.491 65.4244 43.5962 65.8597C42.7015 66.295 41.6368 66.1814 40.8539 65.5672L34.5645 60.6324C33.2424 59.595 31.3416 59.7642 30.2235 61.0187C29.2404 62.1217 29.1455 63.7561 29.9944 64.9654L41.2617 81.016C43.6511 84.4197 45.3564 88.2551 46.2831 92.3092C46.7796 94.4813 48.7118 96.0217 50.9399 96.0217H65.8553C69.4935 96.0217 72.6485 93.5064 73.4592 89.9597L74.099 87.1606C74.2542 86.4816 74.5498 85.8426 74.9668 85.2847C78.3375 80.7753 80.1589 75.2964 80.1589 69.6664V63.8948C80.1586 63.8788 80.1584 63.8627 80.1584 63.8467V58.9717C80.1584 57.6255 79.0671 56.5342 77.7209 56.5342C76.3748 56.5342 75.2834 57.6255 75.2834 58.9717Z" fill="#252849"/>
<path d="M72.9029 37.8346C73.6118 34.889 73.8141 31.7686 73.4231 28.5844C71.6731 14.332 58.7007 4.19684 44.4483 5.94681C30.1959 7.69679 20.0607 20.6692 21.8107 34.9216C22.4086 39.7913 24.3166 44.1803 27.1382 47.7788" stroke="#252849" stroke-width="5.2" stroke-linecap="round"/>
<path d="M34.1461 36.9727C33.607 35.5806 33.2763 34.0807 33.194 32.5088C32.7764 24.5423 38.8961 17.7457 46.8626 17.3282C54.8292 16.9107 61.6257 23.0304 62.0432 30.9969C62.1256 32.5687 61.9535 34.0951 61.5629 35.5358" stroke="#252849" stroke-width="5.2" stroke-linecap="round"/>
</svg>
