<svg width="104" height="104" viewBox="0 0 104 104" fill="none" xmlns="http://www.w3.org/2000/svg">
<path fill-rule="evenodd" clip-rule="evenodd" d="M67.6001 12.675C67.6001 9.8031 65.2719 7.47498 62.4001 7.47498H59.1501C56.2782 7.47498 53.9501 9.8031 53.9501 12.675V13.7312H50.0501V12.675C50.0501 9.8031 47.7219 7.47498 44.8501 7.47498H41.6001C38.7282 7.47498 36.4001 9.8031 36.4001 12.675V13.7312H11.9438V48.2625H20.8V59.15C13.6203 59.15 7.80005 64.9703 7.80005 72.15V88.725C7.80005 93.0328 11.2922 96.525 15.6 96.525H20.8H26H78.0001H83.2001H88.4001C92.7079 96.525 96.2001 93.0328 96.2001 88.725V72.15C96.2001 64.9703 90.3798 59.15 83.2001 59.15V48.2625H92.055V13.7312H67.6001V12.675ZM36.4001 18.9312H17.1438V43.0625H20.8V41.925C20.8 32.7561 27.5801 25.1709 36.4001 23.9093V18.9312ZM41.6001 23.725H44.8501V12.675H41.6001V23.725ZM50.0501 28.925H39C38.1096 28.925 37.2401 29.0145 36.4001 29.185V46.0687C36.4001 51.5094 39.7423 56.1695 44.4856 58.1077C45.402 54.8191 48.4193 52.4062 52 52.4062C55.5808 52.4062 58.5981 54.8191 59.5145 58.1077C64.2578 56.1695 67.6001 51.5094 67.6001 46.0687V29.185C66.76 29.0145 65.8905 28.925 65.0001 28.925H53.9501H50.0501ZM50.0501 23.725V18.9312H53.9501V23.725H50.0501ZM62.4001 23.725H59.1501V12.675H62.4001V23.725ZM67.6001 18.9312V23.9093C76.42 25.1709 83.2001 32.7561 83.2001 41.925V43.0625H86.855V18.9312H67.6001ZM78.0001 91.325V81.9252C71.0481 84.4845 63.6883 85.8 56.2587 85.8H48.0658C40.5205 85.8 33.0472 84.4432 26 81.8048V91.325H78.0001ZM26 76.2168C32.9922 79.1088 40.4894 80.6 48.0658 80.6H56.2587C63.718 80.6 71.1007 79.1545 78.0001 76.3498V59.15V41.925C78.0001 37.6719 75.9576 33.8958 72.8 31.524V46.0687C72.8 54.3253 67.302 61.2978 59.7674 63.5247C59.4047 67.4958 56.0656 70.6062 52 70.6062C47.9345 70.6062 44.5954 67.4958 44.2327 63.5247C36.6981 61.2978 31.2001 54.3253 31.2001 46.0687V31.524C28.0425 33.8958 26 37.6719 26 41.925V59.15V76.2168ZM20.8 91.325V74.5875H13V88.725C13 90.1609 14.1641 91.325 15.6 91.325H20.8ZM13.5034 69.3875H20.8V64.35C17.4649 64.35 14.6187 66.4432 13.5034 69.3875ZM83.2001 64.35V69.3875H90.4967C89.3814 66.4432 86.5352 64.35 83.2001 64.35ZM91.0001 74.5875H83.2001V91.325H88.4001C89.836 91.325 91.0001 90.1609 91.0001 88.725V74.5875ZM52 65.4062C50.5641 65.4062 49.4001 64.2422 49.4001 62.8062V60.2062C49.4001 58.7703 50.5641 57.6062 52 57.6062C53.436 57.6062 54.6001 58.7703 54.6001 60.2062V62.8062C54.6001 64.2422 53.436 65.4062 52 65.4062Z" fill="#252849"/>
</svg>
